# xmcd CD database file
#
# Track frame offsets:
#	150
#	12003
#	21789
#	32130
#	44653
#	58217
#	70878
#	81131
#	91389
#	101832
#	113711
#	124478
#	137102
#	149115
#	161139
#	173441
#	184333
#	197453
#	210345
#	223594
#	235590
#	248609
#	262601
#	273919
#	285498
#	295447
#	306529
#	318434
#	331881
#
# Disc length: 4581 seconds
#
# Revision: 0
# Processed by: cddbd v1.4PL0 Copyright (c) Steve Scherf et al.
# Submitted via: Feurio! 1.63 - http://www.feurio.com
#
DISCID=b011e31d
DTITLE=Inez and Charlie Foxx - Mockinbird - The Complete Sue Recordings
DYEAR=1900
DGENRE=
TTITLE0=Mockingbird
TTITLE1=Searching For My C.C.
TTITLE2=Broken hearted Fool
TTITLE3=My Momma Told Me
TTITLE4=Don't Do It No More
TTITLE5=I Wanna See My baby
TTITLE6=If I Need Anyone (let It be You)
TTITLE7=Here We Go Round the mulberry bush
TTITLE8=Hurt By love
TTITLE9=Sitting Here
TTITLE10=La De da I Love You
TTITLE11=I Fancy You
TTITLE12=Down By The Sea Shore
TTITLE13=Ask Me
TTITLE14=Confusion
TTITLE15=Jaybirds
TTITLE16=The Ball Game
TTITLE17=Tom And Jim
TTITLE18=I See You My Love
TTITLE19=The Angels Got Together
TTITLE20=Love Me Today
TTITLE21=Talk With Me
TTITLE22=Competition - ChuckJohnson
TTITLE23=He's The One You Love
TTITLE24=Hey Diddle Diddle
TTITLE25=Yankee Doodle Dandy
TTITLE26=I Feel Alright
TTITLE27=I've Come To One Conclusion
TTITLE28=Hummingbird
EXTD=
EXTT0=
EXTT1=
EXTT2=
EXTT3=
EXTT4=
EXTT5=
EXTT6=
EXTT7=
EXTT8=
EXTT9=
EXTT10=
EXTT11=
EXTT12=
EXTT13=
EXTT14=
EXTT15=
EXTT16=
EXTT17=
EXTT18=
EXTT19=
EXTT20=
EXTT21=
EXTT22=
EXTT23=
EXTT24=
EXTT25=
EXTT26=
EXTT27=
EXTT28=
PLAYORDER=
